<?xml version="1.0" standalone="no"?>
<!DOCTYPE svg PUBLIC "-//W3C//DTD SVG 20010904//EN"
 "http://www.w3.org/TR/2001/REC-SVG-20010904/DTD/svg10.dtd">
<svg version="1.0" xmlns="http://www.w3.org/2000/svg"
 width="800.000000pt" height="800.000000pt" viewBox="0 0 800.000000 800.000000"
 preserveAspectRatio="xMidYMid meet">
<metadata>
Created by potrace 1.15, written by Peter Selinger 2001-2017
</metadata>
<g transform="translate(0.000000,800.000000) scale(0.100000,-0.100000)"
fill="#000000" stroke="none">
<path d="M2911 5324 c-69 -177 -124 -388 -156 -590 l-6 -41 71 -7 c40 -4 78
-10 84 -12 9 -3 21 35 39 125 30 142 99 367 153 494 19 45 34 84 34 88 0 5
-155 49 -174 49 -2 0 -23 -48 -45 -106z"/>
<path d="M3194 5303 c-73 -162 -137 -361 -174 -536 -11 -51 -20 -95 -20 -99 0
-8 135 -31 151 -26 6 2 26 62 44 133 38 148 97 315 160 450 l43 93 -82 21
c-44 12 -84 21 -89 21 -4 0 -19 -26 -33 -57z"/>
<path d="M3425 5178 c-60 -128 -124 -306 -160 -450 -14 -53 -25 -99 -25 -101
0 -2 28 -10 63 -16 34 -7 69 -14 77 -16 11 -4 21 16 39 83 37 137 98 296 163
429 33 67 60 125 61 129 2 5 -137 54 -156 54 -5 0 -32 -51 -62 -112z"/>
<path d="M4396 5059 c-268 -29 -436 -162 -465 -372 -23 -165 45 -334 193 -482
172 -171 343 -238 611 -238 193 0 356 37 545 125 300 138 381 258 294 436 -57
117 -289 305 -495 401 -220 103 -477 152 -683 130z"/>
<path d="M5540 4930 c0 -3 53 -58 118 -122 110 -108 120 -116 166 -122 27 -3
51 -5 52 -3 2 2 -47 56 -109 120 -111 116 -112 117 -169 126 -32 4 -58 5 -58
1z"/>
<path d="M5732 4892 c7 -9 113 -124 236 -254 201 -214 228 -238 273 -253 28
-10 52 -15 54 -14 3 4 -360 408 -429 478 -24 23 -50 37 -90 46 -53 13 -56 12
-44 -3z"/>
<path d="M6008 4738 c95 -107 116 -125 166 -144 31 -12 56 -21 56 -19 0 2 -45
57 -101 122 -90 105 -107 120 -157 140 -32 12 -61 22 -65 22 -5 1 40 -54 101
-121z"/>
<path d="M5922 4544 c106 -105 116 -112 162 -119 l49 -7 -102 110 c-102 109
-102 109 -162 119 l-61 10 114 -113z"/>
<path d="M6208 4513 c122 -141 157 -173 210 -193 l54 -20 -99 114 c-84 98
-106 117 -151 135 -30 12 -56 21 -59 21 -3 0 18 -26 45 -57z"/>
<path d="M5926 4127 l-88 -42 51 -25 c47 -21 55 -23 84 -11 18 7 58 23 89 35
31 12 60 25 63 28 7 6 -85 58 -103 58 -5 0 -48 -19 -96 -43z"/>
<path d="M6081 4050 c-40 -16 -75 -31 -78 -34 -3 -2 14 -14 37 -26 47 -24 55
-24 175 13 l79 25 -52 26 c-28 14 -59 26 -69 26 -10 -1 -51 -14 -92 -30z"/>
<path d="M5718 3999 c-43 -33 -78 -64 -78 -69 0 -11 90 -41 103 -33 5 3 38 27
72 52 34 25 70 51 81 57 17 11 14 14 -29 33 -27 12 -54 21 -60 21 -7 0 -47
-27 -89 -61z"/>
<path d="M3667 3959 c-16 -28 -27 -52 -24 -55 2 -2 67 -41 143 -86 76 -44 204
-121 284 -171 80 -49 159 -98 177 -109 l32 -19 25 50 c15 28 26 52 26 55 0 12
-607 386 -626 386 -5 0 -22 -23 -37 -51z"/>
<path d="M6315 3993 c-61 -13 -155 -45 -155 -52 0 -5 20 -16 45 -25 43 -17 48
-17 140 5 l96 22 -50 28 c-28 16 -52 28 -53 28 -2 -1 -12 -3 -23 -6z"/>
<path d="M5876 3939 c-41 -27 -78 -54 -81 -58 -2 -5 16 -16 42 -26 43 -17 48
-17 72 -1 14 9 54 33 88 54 35 20 63 39 63 42 0 6 -81 40 -97 40 -6 0 -45 -23
-87 -51z"/>
<path d="M6030 3882 c-45 -26 -81 -51 -81 -57 1 -5 19 -16 41 -23 39 -13 42
-13 134 34 l94 48 -31 14 c-76 33 -71 33 -157 -16z"/>
<path d="M3584 3795 c-22 -48 -24 -59 -13 -69 17 -15 287 -166 297 -166 9 0
51 103 46 112 -2 3 -57 37 -122 73 -64 37 -132 76 -150 87 l-32 20 -26 -57z"/>
<path d="M3511 3615 c-12 -31 -21 -59 -21 -63 0 -4 79 -50 176 -101 97 -52
240 -133 317 -179 78 -46 146 -84 151 -85 4 -1 17 23 27 53 19 52 19 56 2 68
-48 36 -614 362 -628 362 -2 0 -13 -25 -24 -55z"/>
<path d="M3947 3583 c-14 -32 -25 -58 -24 -59 19 -14 270 -164 276 -164 5 0
17 21 27 47 11 27 20 51 22 55 2 5 -164 113 -264 171 -7 4 -21 -16 -37 -50z"/>
<path d="M6078 3291 c-36 -3 -69 -9 -72 -12 -4 -3 58 -51 136 -107 l143 -100
7 31 c4 18 10 60 13 94 l7 61 -41 21 c-41 22 -67 23 -193 12z"/>
<path d="M5874 3266 c-17 -8 -41 -28 -55 -45 -13 -18 -38 -48 -54 -67 l-30
-36 -290 -24 c-160 -13 -304 -26 -321 -29 -45 -8 -77 -46 -76 -92 1 -105 70
-811 81 -831 28 -52 36 -52 568 -8 270 23 494 43 497 47 6 6 78 757 74 769 -3
7 -205 -64 -218 -76 -2 -3 1 -13 8 -22 39 -53 73 -145 79 -209 18 -213 -125
-396 -339 -433 -214 -37 -417 112 -458 338 -44 244 181 485 431 458 70 -7 148
-36 195 -71 l35 -27 120 53 c65 30 119 57 119 60 0 11 -311 259 -324 259 -6
-1 -25 -7 -42 -14z"/>
<path d="M5167 3179 c-23 -13 -37 -51 -30 -78 5 -19 11 -21 52 -16 25 2 71 7
102 10 54 6 56 7 51 33 -9 49 -29 62 -96 62 -34 0 -69 -5 -79 -11z"/>
<path d="M6360 3163 c0 -15 -3 -45 -6 -65 l-6 -37 108 42 c60 22 111 43 114
45 3 2 -4 10 -15 19 -15 11 -37 14 -90 10 -39 -3 -79 -1 -88 4 -14 8 -17 5
-17 -18z"/>
<path d="M6476 3051 l-99 -47 54 -45 c186 -155 206 -169 195 -131 -2 9 -7 62
-11 117 -7 123 -13 155 -28 154 -7 0 -57 -22 -111 -48z"/>
<path d="M6339 2948 c-1 -2 -29 -174 -63 -383 -55 -338 -60 -380 -45 -383 9
-2 94 4 189 12 120 11 180 20 197 31 46 31 48 47 28 294 l-18 230 -86 60 c-47
32 -112 78 -143 101 -32 22 -59 40 -59 38z"/>
<path d="M5705 2843 c-60 -14 -92 -29 -127 -61 -35 -32 -75 -89 -66 -97 7 -6
308 139 301 146 -11 10 -83 18 -108 12z"/>
<path d="M5777 2773 c-63 -24 -67 -27 -52 -43 20 -23 19 -63 -3 -83 -23 -21
-41 -21 -71 -1 -17 12 -22 24 -19 44 l4 28 -64 -24 c-35 -13 -66 -24 -68 -24
-9 0 -3 -106 8 -141 15 -52 73 -117 122 -140 25 -11 65 -19 102 -19 161 0 275
149 230 303 -19 63 -69 127 -99 126 -12 0 -53 -12 -90 -26z"/>
</g>
</svg>
